<svg xmlns="http://www.w3.org/2000/svg" style="display: none;"><symbol id="tattoo-machine" viewBox="0 0 64 64"><title>tattoo-machine</title><path d="m26 62a1 1 0 0 1 -1-1v-4a1 1 0 0 1 2 0v4a1 1 0 0 1 -1 1z" fill="#394d5c"/><path d="m31.999 27h-12v6h12v-2h24v-4z" fill="#aabece"/><path d="m45.999 11h8v4h-8z" fill="#394d5c"/><path d="m45.999 15h8v4h-8z" fill="#7d8d9c"/><path d="m45.999 19h8v4h-8z" fill="#394d5c"/><path d="m33.999 11h8v4h-8z" fill="#394d5c"/><path d="m33.999 15h8v4h-8z" fill="#7d8d9c"/><path d="m33.999 19h8v4h-8z" fill="#394d5c"/><path d="m21.999 37h8v4h-8z" fill="#394d5c"/><path d="m21.999 41h8v4h-8z" fill="#7d8d9c"/><path d="m21.999 45h8v4h-8z" fill="#394d5c"/><path d="m21.999 49h8v4h-8z" fill="#7d8d9c"/><path d="m23.999 53h4v4h-4z" fill="#aabece"/><path d="m23.999 33h4v4h-4z" fill="#7d8d9c"/><path d="m24.999 3h32v4h-32z" fill="#aabece"/><path d="m23.999 19h6v8h-6z" fill="#7d8d9c"/><path d="m16.999 3h4v4h-4z" fill="#7d8d9c"/><path d="m21 4h4v2h-4z" fill="#394d5c"/><path d="m35.999 7h4v4h-4z" fill="#7d8d9c"/><path d="m35.999 23h4v4h-4z" fill="#7d8d9c"/><path d="m47.999 23h4v4h-4z" fill="#7d8d9c"/><path d="m47.999 7h4v4h-4z" fill="#7d8d9c"/><g fill="#394d5c"><path d="m26 7h2v12h-2z"/><path d="m23 30h2v3h-2z"/><path d="m27 30h2v3h-2z"/><path d="m16 29h4v2h-4z"/><path d="m8 29h4v2h-4z"/></g><path d="m11.999 24h4v12h-4z" fill="#7d8d9c"/><path d="m11 36a1 1 0 0 0 1 1h4a1 1 0 0 0 1-1v-5h2v2a1 1 0 0 0 1 1h3v2h-1a1 1 0 0 0 -1 1v16a1 1 0 0 0 1 1h1v3a1 1 0 0 0 1 1h1v3a1 1 0 0 0 2 0v-3h1a1 1 0 0 0 1-1v-3h1a1 1 0 0 0 1-1v-16a1 1 0 0 0 -1-1h-1v-2h3a1 1 0 0 0 1-1v-1h23a1 1 0 0 0 1-1v-4a1 1 0 0 0 -1-1h-3v-2h1a1 1 0 0 0 1-1v-12a1 1 0 0 0 -1-1h-1v-2h4a1 1 0 0 0 1-1v-4a1 1 0 0 0 -1-1h-32a1 1 0 0 0 -1 1v1h-2v-1a1 1 0 0 0 -1-1h-4a1 1 0 0 0 -1 1v4a1 1 0 0 0 1 1h4a1 1 0 0 0 1-1v-1h2v1a1 1 0 0 0 1 1h1v10h-2a1 1 0 0 0 -1 1v7h-3a1 1 0 0 0 -1 1v2h-2v-5a1 1 0 0 0 -1-1h-4a1 1 0 0 0 -1 1v5h-3v2h3zm9-30h-2v-2h2zm3 32h6v2h-6zm6 6h-6v-2h6zm-6 2h6v2h-6zm4 10h-2v-2h2zm2-4h-6v-2h6zm-2-16h-2v-2h2zm24-10h-2v-2h2zm-10 0v-2h1a1 1 0 0 0 1-1v-12a1 1 0 0 0 -1-1h-1v-2h6v2h-1a1 1 0 0 0 -1 1v12a1 1 0 0 0 1 1h1v2zm-4-18h2v2h-2zm-2 8h6v2h-6zm6-4v2h-6v-2zm0 8v2h-6v-2zm-4 4h2v2h-2zm16-12v2h-6v-2zm-6 4h6v2h-6zm6 6h-6v-2h6zm-2-12h-2v-2h2zm-25-6h30v2h-30zm2 4h7v2h-1a1 1 0 0 0 -1 1v12a1 1 0 0 0 1 1h1v2h-4v-7a1 1 0 0 0 -1-1h-2zm-3 12h4v6h-4zm-4 8h34v2h-23a1 1 0 0 0 -1 1v1h-2v-2h-2v2h-2v-2h-2v2h-2zm-8-3h2v10h-2z"/></symbol><symbol id="soap" viewBox="0 0 64 64"><title>soap</title><path d="m30.999 7h2v6h-2z" fill="#195c85"/><g fill="#87cee9"><path d="m29 21h7a11 11 0 0 1 11 11v25a4 4 0 0 1 -4 4h-22a4 4 0 0 1 -4-4v-24a12 12 0 0 1 12-12z"/><circle cx="48.999" cy="7" r="3"/><circle cx="16.999" cy="16" r="3"/><circle cx="41.999" cy="16" r="2"/><circle cx="13.999" cy="5" r="2"/></g><path d="m27.999 17h8v4h-8z" fill="#f98c96"/><path d="m29.999 13h4v4h-4z" fill="#d36775"/><circle cx="31.999" cy="6" fill="#3087aa" r="3"/><path d="m20.554 8.832-1.11-1.664 3-2a1.006 1.006 0 0 1 .556-.168h6v2h-5.7z" fill="#f98c96"/><path d="m43 31h-2a5.006 5.006 0 0 0 -5-5h-4v-2h4a7.008 7.008 0 0 1 7 7z" fill="#f4f4e6"/><path d="m47 33c-2.5 0-2.5 2-5 2s-2.5-2-5-2-2.5 2-5 2-2.5-2-5-2-2.5 2-5 2-2.5-2-5-2v24a4 4 0 0 0 4 4h22a4 4 0 0 0 4-4z" fill="#f98c96"/><path d="m16.999 45h30v12h-30z" fill="#ffd782"/><path d="m21.999 39h2v2h-2z" fill="#d36775"/><path d="m26.999 37h2v2h-2z" fill="#d36775"/><path d="m35.999 40h2v2h-2z" fill="#d36775"/><path d="m40.999 38h2v2h-2z" fill="#d36775"/><path d="m22.999 49h18v4h-18z" fill="#d36775"/><path d="m21 62h22a5.006 5.006 0 0 0 5-5v-24c0-7.165-4.57-12.451-11-12.951v-4.049h-2v-4h-2v-2.142a3.992 3.992 0 1 0 -4.858-4.858h-5.142a1.006 1.006 0 0 0 -.555.168l-3 2 1.11 1.664 2.745-1.832h4.839a4 4 0 0 0 2.861 2.858v2.142h-2v4h-2v4.049c-6.43.5-11 5.786-11 12.951v24a5.006 5.006 0 0 0 5 5zm9-56a2 2 0 1 1 2 2 2 2 0 0 1 -2-2zm-11.126 28.781a4.613 4.613 0 0 0 6.248 0 2.638 2.638 0 0 1 3.747 0 4.613 4.613 0 0 0 6.248 0 2.585 2.585 0 0 1 1.875-.781 2.62 2.62 0 0 1 1.878.781 4.618 4.618 0 0 0 6.252 0 4.128 4.128 0 0 1 .878-.581v9.8h-28v-9.8a4.116 4.116 0 0 1 .874.581zm27.126 21.219h-28v-10h28zm-3 4h-22a3 3 0 0 1 -2.816-2h27.632a3 3 0 0 1 -2.816 2zm-12-46h2v2h-2zm-2 4h6v2h-6zm-1 4h8c5.519 0 9.589 4.2 9.963 10.109a4.846 4.846 0 0 0 -2.089 1.11 2.648 2.648 0 0 1 -3.756 0 4.616 4.616 0 0 0 -6.251 0 2.639 2.639 0 0 1 -3.748 0 4.611 4.611 0 0 0 -6.247 0 2.639 2.639 0 0 1 -3.748 0 4.86 4.86 0 0 0 -2.087-1.11c.374-5.909 4.444-10.109 9.963-10.109z"/><path d="m53 7a4 4 0 1 0 -4 4 4 4 0 0 0 4-4zm-6 0a2 2 0 1 1 2 2 2 2 0 0 1 -2-2z"/><path d="m17 20a4 4 0 1 0 -4-4 4 4 0 0 0 4 4zm0-6a2 2 0 1 1 -2 2 2 2 0 0 1 2-2z"/><path d="m45 16a3 3 0 1 0 -3 3 3 3 0 0 0 3-3zm-4 0a1 1 0 1 1 1 1 1 1 0 0 1 -1-1z"/><path d="m17 5a3 3 0 1 0 -3 3 3 3 0 0 0 3-3zm-3 1a1 1 0 1 1 1-1 1 1 0 0 1 -1 1z"/><path d="m22 39h2v2h-2z"/><path d="m27 37h2v2h-2z"/><path d="m36 40h2v2h-2z"/><path d="m41 38h2v2h-2z"/><path d="m41 31h2a7.008 7.008 0 0 0 -7-7h-4v2h4a5.006 5.006 0 0 1 5 5z"/><path d="m42 48h-20v6h20zm-2 4h-16v-2h16z"/></symbol><symbol id="toilet-paper" viewBox="0 0 64 64"><title>toilet-paper</title><path d="m19 3c-8.837 0-16 2.686-16 6v46c0 3.314 7.164 6 16 6s16-2.686 16-6v-46c0-3.314-7.164-6-16-6z" fill="#cfdfe8"/><ellipse cx="18.999" cy="9" fill="#f4f4e6" rx="16" ry="6"/><ellipse cx="18.999" cy="9" fill="#c6c4ab" rx="9" ry="2"/><g fill="#f4f4e6"><path d="m19 20c-8.738 0-17-2.916-17-6h2c.248 1.14 6.5 4 15 4z"/><path d="m19 58v-2c8.488 0 14.811-3.764 15-5.014l2 .014c0 3.057-8.245 7-17 7z"/><path d="m21 53v-2c6.8 0 12.842-3.782 13-5.01l2 .01c0 2.892-7.759 7-15 7z"/></g><path d="m61 55v-44l-8-8h-34c8.837 0 16 2.686 16 6v46z" fill="#bcd0dd"/><path d="m60.999 11h-8v-8z" fill="#849eaf"/><path d="m57.999 52h-6v-2h4v-9h2z" fill="#f4f4e6"/><path d="m23.999 28h2v2h-2z" fill="#f4f4e6"/><path d="m18.999 31h2v2h-2z" fill="#f4f4e6"/><path d="m19 12c2.346 0 10-.217 10-3s-7.654-3-10-3-10 .217-10 3 7.654 3 10 3zm0-4a22.492 22.492 0 0 1 7.616 1 22.492 22.492 0 0 1 -7.616 1 22.492 22.492 0 0 1 -7.616-1 22.492 22.492 0 0 1 7.616-1z"/><path d="m53.707 2.293a1 1 0 0 0 -.707-.293h-34c-8.241 0-17 2.453-17 7v46c0 4.547 8.759 7 17 7 7.612 0 15.65-2.1 16.835-6h25.165a1 1 0 0 0 1-1v-44a1 1 0 0 0 -.293-.707zm.293 3.121 4.586 4.586h-4.586zm-35-1.414c8.585 0 15 2.64 15 5s-6.415 5-15 5-15-2.64-15-5 6.415-5 15-5zm0 56c-8.585 0-15-2.64-15-5v-38.368c2.969 1.926 8.86 3.368 15 3.368v-2c-8.5 0-14.752-2.86-15-4v-1.587c3.053 2.344 9.149 3.587 15 3.587s11.947-1.243 15-3.587v33.577c-.158 1.228-6.2 5.01-13 5.01v2a23.079 23.079 0 0 0 13-4.112v2.1c-.2 1.253-6.517 5.012-15 5.012v2c6.15 0 12.034-1.946 15-4.163v1.163c0 2.36-6.415 5-15 5zm17-6v-45c0-2.149-1.97-3.824-4.9-5h20.9v7a1 1 0 0 0 1 1h7v42z"/><path d="m56 50h-4v2h6v-11h-2z"/><path d="m24 28h2v2h-2z"/><path d="m19 31h2v2h-2z"/></symbol><symbol id="heart" viewBox="0 0 64 64"><title>heart</title><path d="m23 58c3.124-3.124 4.343-7.657 2-10s-6.876-1.124-10 2-3 11-3 11 7.876.124 11-3z" fill="#4d6b61"/><path d="m9.308 53.499h18.385v2h-18.385z" fill="#8ec13f" transform="matrix(.707 -.707 .707 .707 -33.118 29.044)"/><path d="m13.999 50h8v2h-8z" fill="#8ec13f"/><path d="m18 53.999h2v6h-2z" fill="#8ec13f"/><path d="m58 14c-3.124 3.124-7.657 4.343-10 2s-1.125-6.876 2-10 11-3 11-3 .124 7.876-3 11z" fill="#4d6b61"/><path d="m45.307 8.5h18.385v2h-18.385z" fill="#8ec13f" transform="matrix(.707 -.707 .707 .707 9.245 41.319)"/><path d="m50.999 5h2v7h-2z" fill="#8ec13f"/><path d="m53.999 9h6v2h-6z" fill="#8ec13f"/><path d="m14.999 39h-12l4-5-4-5h12z" fill="#4d6b61"/><path d="m48.999 39h12l-4-5 4-5h-12z" fill="#4d6b61"/><path d="m32 16.912a15.957 15.957 0 0 0 -21 .059 12.6 12.6 0 0 0 0 19l21 19 21-19a12.6 12.6 0 0 0 0-19 15.957 15.957 0 0 0 -21-.059z" fill="#b11e48"/><g fill="#fcf05a"><path d="m14 10a5.006 5.006 0 0 1 -5-5 1 1 0 0 1 2 0 3 3 0 0 0 3 3 1 1 0 1 1 0 2z"/><path d="m14 10a5.006 5.006 0 0 1 -5-5 1 1 0 0 1 2 0 3 3 0 0 0 3 3 1 1 0 1 1 0 2z"/><path d="m6 10a1 1 0 1 1 0-2 3 3 0 0 0 3-3 1 1 0 0 1 2 0 5.006 5.006 0 0 1 -5 5z"/><path d="m10 14a1 1 0 0 1 -1-1 5.006 5.006 0 0 1 5-5 1 1 0 1 1 0 2 3 3 0 0 0 -3 3 1 1 0 0 1 -1 1z"/><path d="m10 14a1 1 0 0 1 -1-1 5.006 5.006 0 0 1 5-5 1 1 0 1 1 0 2 3 3 0 0 0 -3 3 1 1 0 0 1 -1 1z"/><path d="m10 14a1 1 0 0 1 -1-1 3 3 0 0 0 -3-3 1 1 0 1 1 0-2 5.006 5.006 0 0 1 5 5 1 1 0 0 1 -1 1z"/><path d="m51 56a5.006 5.006 0 0 1 -5-5 1 1 0 0 1 2 0 3 3 0 0 0 3 3 1 1 0 0 1 0 2z"/><path d="m51 56a5.006 5.006 0 0 1 -5-5 1 1 0 0 1 2 0 3 3 0 0 0 3 3 1 1 0 0 1 0 2z"/><path d="m43 56a1 1 0 1 1 0-2 3 3 0 0 0 3-3 1 1 0 0 1 2 0 5.006 5.006 0 0 1 -5 5z"/><path d="m47 60a1 1 0 0 1 -1-1 5.006 5.006 0 0 1 5-5 1 1 0 0 1 0 2 3 3 0 0 0 -3 3 1 1 0 0 1 -1 1z"/><path d="m47 60a1 1 0 0 1 -1-1 5.006 5.006 0 0 1 5-5 1 1 0 0 1 0 2 3 3 0 0 0 -3 3 1 1 0 0 1 -1 1z"/><path d="m47 60a1 1 0 0 1 -1-1 3 3 0 0 0 -3-3 1 1 0 1 1 0-2 5.006 5.006 0 0 1 5 5 1 1 0 0 1 -1 1z"/></g><path d="m43.706 39.707-1.414-1.414 7-7c4.758-4.283 1.122-8.447.965-8.622l1.481-1.345a8.41 8.41 0 0 1 2.01 5.611 8.345 8.345 0 0 1 -3.08 5.806z" fill="#f4f4e6"/><path d="m19.999 17h2v2h-2z" fill="#eb8cb3"/><path d="m23.999 20h2v2h-2z" fill="#eb8cb3"/><path d="m12.999 21h2v2h-2z" fill="#eb8cb3"/><path d="m58 36.971c-6 2-16 2.84-29-.16s-20 3-20 3l4 8.16s5-6 18-3 19 2 25 0z" fill="#c8d952"/><path d="m11 5a1 1 0 0 0 -2 0 3 3 0 0 1 -3 3 1 1 0 0 0 0 2 3 3 0 0 1 3 3 1 1 0 0 0 2 0 3 3 0 0 1 3-3 1 1 0 0 0 0-2 3 3 0 0 1 -3-3zm-1 5.031a4.988 4.988 0 0 0 -1.031-1.031 4.988 4.988 0 0 0 1.031-1.031 4.988 4.988 0 0 0 1.031 1.031 4.988 4.988 0 0 0 -1.031 1.031z"/><path d="m51 54a3 3 0 0 1 -3-3 1 1 0 0 0 -2 0 3 3 0 0 1 -3 3 1 1 0 0 0 0 2 3 3 0 0 1 3 3 1 1 0 0 0 2 0 3 3 0 0 1 3-3 1 1 0 0 0 0-2zm-4 2.031a4.988 4.988 0 0 0 -1.031-1.031 4.988 4.988 0 0 0 1.031-1.031 4.988 4.988 0 0 0 1.031 1.031 4.988 4.988 0 0 0 -1.031 1.031z"/><path d="m61.9 28.566a1 1 0 0 0 -.9-.566h-2.771a13.416 13.416 0 0 0 -3.42-10.609 12.838 12.838 0 0 0 3.9-2.684c3.379-3.381 3.296-11.383 3.291-11.723a1 1 0 0 0 -.984-.984c-.338 0-8.341-.09-11.723 3.293a11.488 11.488 0 0 0 -3.477 7.043 17.569 17.569 0 0 0 -3.386-.336 16.48 16.48 0 0 0 -10.43 3.592 16.967 16.967 0 0 0 -21.675.639 13.788 13.788 0 0 0 -4.645 10.239 13.631 13.631 0 0 0 .091 1.53h-2.771a1 1 0 0 0 -.781 1.625l3.501 4.375-3.5 4.375a1 1 0 0 0 .78 1.625h5.028a.952.952 0 0 0 .075.251l4 8.16a1 1 0 0 0 .774.549.852.852 0 0 0 .124.008 1.007 1.007 0 0 0 .763-.352c.119-.14 1.975-2.226 6.288-3.1l.454.41a11.913 11.913 0 0 0 -6.213 3.372c-3.381 3.376-3.293 11.378-3.293 11.718a1 1 0 0 0 .984.984h.164c1.21 0 8.4-.136 11.559-3.294a11.461 11.461 0 0 0 3.453-6.766l4.169 3.771a1 1 0 0 0 1.342 0l8.836-8a34.807 34.807 0 0 0 14.809-1.8.994.994 0 0 0 .654-.706l1.303-5.205h2.727a1 1 0 0 0 .781-1.625l-3.501-4.375 3.5-4.375a1 1 0 0 0 .12-1.059zm-2.581-19.566h-2.905l3.468-3.468a24.925 24.925 0 0 1 -.563 3.468zm-6.319-3.691a20.651 20.651 0 0 1 5.468-1.191l-5.468 5.468zm1.414 5.691h4.277a6.819 6.819 0 0 1 -1.4 2.293 10.582 10.582 0 0 1 -4.088 2.551 15.778 15.778 0 0 0 -2.12-1.515zm-3.707-4.293c.09-.09.192-.174.293-.259v5.138l-1.8 1.8q-.69-.3-1.407-.528a9.248 9.248 0 0 1 2.914-6.151zm-39.033 11a14.886 14.886 0 0 1 19.652-.06 1 1 0 0 0 1.348 0 14.389 14.389 0 0 1 9.756-3.647 14.619 14.619 0 0 1 9.9 3.708 11.607 11.607 0 0 1 0 17.521l-2.582 2.337c-1.24.112-2.612.18-4.1.2l5.018-5.019a8.345 8.345 0 0 0 3.08-5.806 8.41 8.41 0 0 0 -2.01-5.611l-1.481 1.345c.157.175 3.793 4.339-.965 8.622l-6.424 6.423a72.633 72.633 0 0 1 -13.641-1.884c-7.226-1.668-12.644-.658-16.155.656l-1.395-1.261a11.6 11.6 0 0 1 0-17.522zm-6.593 12.293h1.091a13.528 13.528 0 0 0 1.054 2.681zm0 8 2.7-3.375a1 1 0 0 0 .219-.643 14.9 14.9 0 0 0 2.333 2.73l.723.653c-.44.22-.845.437-1.179.635zm17.589 9.879.545.492-1.629 1.629h-5.1c1.992-1.646 4.388-2.481 6.184-2.121zm-4.67 11.439a24.8 24.8 0 0 1 -3.469.564l3.469-3.469zm-4.883-.85a18.009 18.009 0 0 1 1.657-6.468h4.812zm9.175-1.175a6.814 6.814 0 0 1 -2.292 1.398v-4.278l4.7-4.7.336.3c.608 2.035-.511 5.048-2.743 7.28zm9.708-3.672-9.335-8.444a28.033 28.033 0 0 1 8.11.768c3.021.7 5.672 1.18 8.061 1.49zm23.164-9.428c-5.12 1.659-10.987 2.792-23.939-.2-10.225-2.356-15.754.648-17.914 2.339l-3.042-6.206c1.93-1.275 8.315-4.694 18.506-2.341 10.416 2.4 20.423 2.624 27.829.647zm-1.928-7.093.439-.4a14.849 14.849 0 0 0 2.325-2.717.993.993 0 0 0 .216.642l1.188 1.485a31.586 31.586 0 0 1 -4.168.99zm3.539-4.426a13.423 13.423 0 0 0 1.053-2.674h1.091z"/><path d="m20 17h2v2h-2z"/><path d="m24 20h2v2h-2z"/><path d="m13 21h2v2h-2z"/></symbol><symbol id="spray" viewBox="0 0 64 64"><title>spray</title><path d="m21 61h20a2 2 0 0 0 1.995-2.1l-1.995-38.9h-14v9l-6 5-2 25a1.885 1.885 0 0 0 2 2z" fill="#2d75bb"/><path d="m28.999 16h10v4h-10z" fill="#0f4468" transform="matrix(-1 0 0 -1 67.999 36)"/><path d="m37.005 16s0-4 4-4l-3-4s-9 0-14-1l-1 4s8 0 8 5z" fill="#2d75bb"/><path d="m24.56 17.832-1.11-1.664a5.443 5.443 0 0 0 2.555-4.168h2a7.442 7.442 0 0 1 -3.445 5.832z" fill="#87cee9"/><path d="m26.999 24h6v2h-6z" fill="#f4f4e6"/><path d="m34.999 24h2v2h-2z" fill="#f4f4e6"/><g fill="#87cee9"><path d="m16.999 1.438h2v4.123h-2z" transform="matrix(.243 -.97 .97 .243 10.238 20.113)"/><path d="m14.937 11.5h4.123v2h-4.123z" transform="matrix(.97 -.242 .242 .97 -2.521 4.489)"/><path d="m14.999 7h4v2h-4z"/><path d="m25.007 36c4 0 2-4 6-4s2-2 7-2l1 27h-16z"/></g><circle cx="48.999" cy="21" fill="#cfdfe8" r="3"/><circle cx="17.999" cy="24" fill="#cfdfe8" r="3"/><circle cx="46.999" cy="11" fill="#cfdfe8" r="2"/><circle cx="13.999" cy="33" fill="#cfdfe8" r="2"/><path d="m35 45a3 3 0 1 1 -6 0c0-1.657 3-5 3-5s3 3.343 3 5z" fill="#f4f4e6"/><path d="m23.006 12a14.944 14.944 0 0 1 2.963.372 5.572 5.572 0 0 1 -2.518 3.8l1.11 1.664a7.6 7.6 0 0 0 3.315-4.8 3.675 3.675 0 0 1 1.943 1.964h-.819a1 1 0 0 0 -1 1v3h-1a1 1 0 0 0 -1 1v8.532l-5.641 4.7a1 1 0 0 0 -.359.688l-2 25.006a2.778 2.778 0 0 0 .73 2.123 3.091 3.091 0 0 0 2.27.951h20a2.97 2.97 0 0 0 2.171-.931 3.017 3.017 0 0 0 .823-2.217l-1.994-38.903a1 1 0 0 0 -1-.949h-1v-3a1 1 0 0 0 -1-1h-.838a2.682 2.682 0 0 1 2.844-2 1 1 0 0 0 .8-1.6l-3-4a1 1 0 0 0 -.8-.4c-.089 0-8.957-.011-13.8-.98a1 1 0 0 0 -1.166.737l-1 4a1 1 0 0 0 .966 1.243zm18.994 46.953a1 1 0 0 1 -1 1.047h-20a1.09 1.09 0 0 1 -.8-.312.777.777 0 0 1 -.2-.608l1.963-24.58 5.678-4.731a1 1 0 0 0 .359-.769v-3h5v-2h-5v-3h12.05zm-12-39.953v-2h8v2zm-5.251-10.85a98.48 98.48 0 0 0 12.751.85l1.7 2.27a4.713 4.713 0 0 0 -3.093 3.73h-4.19c-.7-3.784-5.353-4.7-7.648-4.928z"/><path d="m35 24h2v2h-2z"/><path d="m17 1.438h2v4.123h-2z" transform="matrix(.243 -.97 .97 .243 10.239 20.114)"/><path d="m14.938 11.5h4.123v2h-4.123z" transform="matrix(.97 -.242 .242 .97 -2.521 4.489)"/><path d="m15 7h4v2h-4z"/><path d="m38.008 29c-2.768 0-3.725.591-4.608 1.306a2.987 2.987 0 0 1 -2.392.694 3.829 3.829 0 0 0 -3.895 2.553c-.467.933-.723 1.447-2.105 1.447a1 1 0 0 0 -.995.905l-2 21a1 1 0 0 0 .995 1.095h16a1 1 0 0 0 1-1.037l-1-27a1 1 0 0 0 -1-.963zm-13.9 27 1.817-19.068a3.8 3.8 0 0 0 2.975-2.485c.467-.933.724-1.447 2.106-1.447a4.892 4.892 0 0 0 3.65-1.139 3.479 3.479 0 0 1 2.387-.831l.927 24.97z"/><path d="m45 21a4 4 0 1 0 4-4 4 4 0 0 0 -4 4zm6 0a2 2 0 1 1 -2-2 2 2 0 0 1 2 2z"/><path d="m18 28a4 4 0 1 0 -4-4 4 4 0 0 0 4 4zm0-6a2 2 0 1 1 -2 2 2 2 0 0 1 2-2z"/><path d="m47 14a3 3 0 1 0 -3-3 3 3 0 0 0 3 3zm0-4a1 1 0 1 1 -1 1 1 1 0 0 1 1-1z"/><path d="m14 36a3 3 0 1 0 -3-3 3 3 0 0 0 3 3zm0-4a1 1 0 1 1 -1 1 1 1 0 0 1 1-1z"/><path d="m31.256 39.332c-.544.606-3.256 3.727-3.256 5.668a4 4 0 0 0 8 0c0-1.941-2.712-5.062-3.256-5.668a1.031 1.031 0 0 0 -1.488 0zm.744 7.668a2 2 0 0 1 -2-2c0-.637.939-2.125 2-3.451 1.062 1.332 2 2.831 2 3.451a2 2 0 0 1 -2 2z"/></symbol><symbol id="skull" viewBox="0 0 64 64"><title>skull</title><path d="m55.958 25.568a23.752 23.752 0 0 0 -20.448-22.319 24.013 24.013 0 0 0 -27.51 23.751 22.588 22.588 0 0 0 5 14h5v12l7 2h14l7-2v-12h5a22.7 22.7 0 0 0 4.958-15.432z" fill="#e2e1cf"/><path d="m14 22c-1.611 1.464-2 3.652-2 6a8 8 0 0 0 8 8 8.085 8.085 0 0 0 8-8z" fill="#72705b"/><path d="m50 22-14 6a8.086 8.086 0 0 0 8 8 8 8 0 0 0 8-8c0-2.348-.389-4.536-2-6z" fill="#72705b"/><g fill="#474537"><path d="m28 29a1 1 0 0 1 -.4-.084l-16-7 .8-1.832 15 6.561.521-1.568-.645-1.29-4.647-1.858.744-1.858 5 2a1 1 0 0 1 .523.482l1 2a1 1 0 0 1 .054.762l-1 3a1 1 0 0 1 -.95.685z"/><path d="m36 29a.987.987 0 0 1 -.406-.086 1 1 0 0 1 -.543-.6l-1-3a.994.994 0 0 1 .054-.764l1-2a1 1 0 0 1 .522-.482l5-2 .744 1.858-4.647 1.858-.645 1.289.524 1.57 15-6.562.8 1.832-16 7a1 1 0 0 1 -.403.087z"/><path d="m24.997 50h2v5h-2z"/><path d="m28.997 48h2v7h-2z"/><path d="m32.997 50h2v5h-2z"/><path d="m36.997 48h2v7h-2z"/></g><path d="m17.997 41 4 2v11.143l-4-1.143z" fill="#c6c4ab"/><path d="m45.997 41-4 2v11.143l4-1.143z" fill="#c6c4ab"/><path d="m21.997 54.143 2 6.857h16l2-6.857-3 .857h-14z" fill="#b2af96"/><path d="m26.997 55h2v3h-2z" fill="#474537"/><path d="m30.997 55h2v3h-2z" fill="#474537"/><path d="m34.997 55h2v3h-2z" fill="#474537"/><path d="m29.999 35v6l-3 3v-5z" fill="#72705b"/><path d="m33.999 35v6l3 3v-5z" fill="#72705b"/><path d="m45 18h2v2h-2z" fill="#f4f4e6"/><path d="m48 15h2v2h-2z" fill="#f4f4e6"/><path d="m25 8h2v2h-2z" fill="#f4f4e6"/><path d="m21 11h2v2h-2z" fill="#f4f4e6"/><path d="m26 14h2v2h-2z" fill="#f4f4e6"/><path d="m28.989 28.2.957-2.881a1 1 0 0 0 -.054-.762l-1-2a1 1 0 0 0 -.523-.482l-5-2-.743 1.858 4.647 1.858.645 1.29-.518 1.564-15-6.561-.8 1.832.847.371a9.947 9.947 0 0 0 -1.447 5.713 9 9 0 0 0 17.989.2zm-8.989 6.8a7.008 7.008 0 0 1 -7-7c0-2.306.413-3.842 1.321-4.893l12.639 5.529a7.066 7.066 0 0 1 -6.96 6.364z"/><path d="m52.4 21.916-.8-1.832-15 6.562-.524-1.57.644-1.289 4.647-1.858-.743-1.858-5 2a1 1 0 0 0 -.523.482l-1 2a1 1 0 0 0 -.054.764l.963 2.88a9 9 0 0 0 17.99-.197 9.947 9.947 0 0 0 -1.446-5.713zm-8.4 13.084a7.066 7.066 0 0 1 -6.96-6.364l12.639-5.529c.908 1.051 1.321 2.587 1.321 4.893a7.008 7.008 0 0 1 -7 7z"/><path d="m35.65 2.259a25.011 25.011 0 0 0 -28.65 24.741 23.536 23.536 0 0 0 5.2 14.6 1 1 0 0 0 .8.4h4v11a1 1 0 0 0 .725.962l3.469.991 1.846 6.327a1 1 0 0 0 .96.72h16a1 1 0 0 0 .96-.72l1.84-6.327 3.469-.991a1 1 0 0 0 .731-.962v-11h4a1 1 0 0 0 .8-.4 23.5 23.5 0 0 0 5.16-16.093 24.661 24.661 0 0 0 -21.31-23.248zm-14.65 50.558-2-.571v-9.628l2 1zm18.248 7.183h-14.5l-1.283-4.4 1.258.359a1.02 1.02 0 0 0 .277.041h2v2h2v-2h2v2h2v-2h2v2h2v-2h2a1.018 1.018 0 0 0 .274-.038l1.256-.362zm5.752-7.754-2 .571v-9.2l2-1zm5.5-12.246h-4.5a1.791 1.791 0 0 0 -.448.1l-4 2a1 1 0 0 0 -.552.9v10.389l-2 .571v-5.96h-2v6h-2v-4h-2v4h-2v-6h-2v6h-2v-4h-2v3.96l-2-.571v-10.389a1 1 0 0 0 -.553-.9l-4-2a1.792 1.792 0 0 0 -.447-.1h-4.5a21.445 21.445 0 0 1 -4.5-13 23.012 23.012 0 0 1 26.37-22.761 22.678 22.678 0 0 1 19.589 21.387 21.445 21.445 0 0 1 -4.459 14.374z"/><path d="m30.316 34.052a1 1 0 0 0 -1.116.348l-3 4a1 1 0 0 0 -.2.6v5a1 1 0 0 0 .617.924.987.987 0 0 0 .383.076 1 1 0 0 0 .707-.293l3-3a1 1 0 0 0 .293-.707v-6a1 1 0 0 0 -.684-.948zm-1.316 6.534-1 1v-2.253l1-1.333z"/><path d="m34.8 34.4a1 1 0 0 0 -1.8.6v6a1 1 0 0 0 .293.707l3 3a1 1 0 0 0 .707.293.987.987 0 0 0 .383-.076 1 1 0 0 0 .617-.924v-5a1 1 0 0 0 -.2-.6zm1.2 7.186-1-1v-2.586l1 1.333z"/><path d="m45 18h2v2h-2z"/><path d="m48 15h2v2h-2z"/><path d="m25 8h2v2h-2z"/><path d="m21 11h2v2h-2z"/><path d="m26 14h2v2h-2z"/></symbol><symbol id="tattoo-studio" viewBox="0 0 64 64"><title>tattoo-studio</title><path d="m35.378 3.5h4.243v2h-4.243z" fill="#301a12" transform="matrix(.707 -.707 .707 .707 7.801 27.834)"/><path d="m2.999 33h58v24h-58z" fill="#394d5c"/><path d="m2.999 57h14v4h-14z" fill="#ad6327"/><path d="m16.999 57h15v4h-15z" fill="#96511e"/><path d="m46.999 57h14v4h-14z" fill="#96511e" transform="matrix(-1 0 0 -1 107.999 118)"/><path d="m31.999 57h15v4h-15z" fill="#ad6327" transform="matrix(-1 0 0 -1 78.999 118)"/><path d="m24.999 37h14v20h-14z" fill="#87cee9"/><path d="m33.1 44.447-1.1-2.211-1.106 2.211-1.789-.894 2-4a1.041 1.041 0 0 1 1.789 0l2 4z" fill="#ad6327"/><path d="m6.999 37h14v12h-14z" fill="#87cee9"/><path d="m2.999 49h22v4h-22z" fill="#ad6327"/><path d="m42.999 37h14v12h-14z" fill="#87cee9"/><path d="m38.999 49h22v4h-22z" fill="#ad6327"/><path d="m10.6 43.136-1.2-1.6a7.762 7.762 0 0 1 9.2 0l-1.2 1.6a5.805 5.805 0 0 0 -6.8 0z" fill="#f4f4e6"/><path d="m10 44h8v2h-8z" fill="#f4f4e6"/><path d="m46.6 43.136-1.2-1.6a7.762 7.762 0 0 1 9.2 0l-1.2 1.6a5.805 5.805 0 0 0 -6.8 0z" fill="#f4f4e6"/><path d="m46 44h8v2h-8z" fill="#f4f4e6"/><path d="m2.999 13h58v4h-58z" fill="#ad6327"/><path d="m4.999 17h54v16h-54z" fill="#7d8d9c"/><g fill="#ffd782"><path d="m10 20h6v2h-6z"/><path d="m12 21h2v9h-2z"/><path d="m25 20h6v2h-6z"/><path d="m27 21h2v9h-2z"/><path d="m33 20h6v2h-6z"/><path d="m35 21h2v9h-2z"/><path d="m23.023 30.217-1.826-8.217h-1.395l-1.826 8.217-1.953-.434 2.174-9.783h4.605l2.174 9.783z"/><path d="m18 25h5v2h-5z"/><path d="m47 30h-6v-10h6zm-4-2h2v-6h-2z"/><path d="m55 30h-6v-10h6zm-4-2h2v-6h-2z"/></g><path d="m32 6a3.8 3.8 0 0 0 -5 0 3.551 3.551 0 0 0 0 5l5 4 5-4a3.55 3.55 0 0 0 0-5 3.8 3.8 0 0 0 -5 0z" fill="#b11e48"/><path d="m23.55 12.5h9.899v2h-9.899z" fill="#301a12" transform="matrix(.707 -.707 .707 .707 -1.199 24.106)"/><path d="m28 52h8v2h-8z" fill="#f4f4e6"/><path d="m28.999 44h6v4h-6z" fill="#fcf05a"/><path d="m36 43h-1.382l-1.718-3.447a1.042 1.042 0 0 0 -1.79 0l-1.728 3.447h-1.382v6h8zm-4-.764.382.764h-.764zm2 4.764h-4v-2h4z"/><path d="m17.4 43.133 1.2-1.6a7.76 7.76 0 0 0 -9.2 0l1.2 1.6a5.8 5.8 0 0 1 6.8 0z"/><path d="m10 44h8v2h-8z"/><path d="m53.4 43.133 1.2-1.6a7.76 7.76 0 0 0 -9.2 0l1.2 1.6a5.8 5.8 0 0 1 6.8 0z"/><path d="m46 44h8v2h-8z"/><path d="m12 30h2v-8h2v-2h-6v2h2z"/><path d="m27 30h2v-8h2v-2h-6v2h2z"/><path d="m35 30h2v-8h2v-2h-6v2h2z"/><path d="m18.691 27h3.618l.715 3.217 1.952-.434-2.176-9.783h-4.6l-2.174 9.783 1.952.434zm2.509-5 .667 3h-2.73l.667-3z"/><path d="m47 20h-6v10h6zm-2 8h-2v-6h2z"/><path d="m55 20h-6v10h6zm-2 8h-2v-6h2z"/><path d="m37.674 11.739a4.363 4.363 0 0 0 1.355-3.239 4.395 4.395 0 0 0 -1.129-2.983l1.81-1.81-1.417-1.414-2.088 2.088a4.875 4.875 0 0 0 -4.2.375 4.827 4.827 0 0 0 -5.674.5 4.363 4.363 0 0 0 -1.36 3.244 4.384 4.384 0 0 0 1.4 3.281l.279.219h-24.65v6h2v14h-1a1 1 0 0 0 -1 1v28a1 1 0 0 0 1 1h58a1 1 0 0 0 1-1v-28a1 1 0 0 0 -1-1h-1v-14h2v-6h-24.652zm-10-5a2.8 2.8 0 0 1 3.652 0l.674.614.674-.614a2.8 2.8 0 0 1 3.652 0 2.363 2.363 0 0 1 .7 1.761 2.357 2.357 0 0 1 -.654 1.719l-4.372 3.501-1.281-1.02 1.988-1.988-1.414-1.419-2.146 2.146-1.473-1.178a2.363 2.363 0 0 1 -.7-1.761 2.363 2.363 0 0 1 .7-1.761zm3.975 9.261h-4.235l1.886-1.882zm-27.649-2h22.586l-2 2h-20.586zm16 34h-12v-10h12zm4 2v2h-20v-2zm2-12h12v18h-12zm30 10h-12v-10h12zm4 2v2h-20v-2zm-36 4v2h-20v-2zm-20 4h12v2h-12zm14 0h13v2h-13zm15 0h13v2h-13zm27 2h-12v-2h12zm0-4h-20v-2h20zm0-8h-2v-12h-16v12h-2v-12h-16v12h-2v-12h-16v12h-2v-14h56zm-2-16h-52v-14h52zm2-18v2h-27.649l2.5-2z"/><path d="m28 52h8v2h-8z"/></symbol><symbol id="tattoo" viewBox="0 0 64 64"><title>tattoo</title><path d="m48 61a4 4 0 0 1 -4-4v-4h-28v-50h36v54a4 4 0 0 1 -4 4z" fill="#e2e1cf"/><path d="m20.999 12h-2v-6h6v2h-4z" fill="#d36775"/><path d="m48.999 12h-2v-4h-4v-2h6z" fill="#d36775"/><path d="m33 26a6.839 6.839 0 0 0 -9 0 5.245 5.245 0 0 0 0 8l9 8 9-8a5.244 5.244 0 0 0 0-8 6.839 6.839 0 0 0 -9 0z" fill="#f98c96"/><path d="m33 43a1 1 0 0 1 -.664-.252l-9-8a6.243 6.243 0 0 1 -.01-9.487 7.861 7.861 0 0 1 9.674-.543 7.863 7.863 0 0 1 9.674.543 6.241 6.241 0 0 1 0 9.478l-9.01 8.009a1 1 0 0 1 -.664.252zm-4.5-17.679a5.681 5.681 0 0 0 -3.826 1.418 4.246 4.246 0 0 0 0 6.522l8.326 7.401 8.336-7.41a4.243 4.243 0 0 0 -.01-6.513 5.872 5.872 0 0 0 -7.652 0 1 1 0 0 1 -1.348 0 5.681 5.681 0 0 0 -3.826-1.418z" fill="#d36775"/><path d="m35.718 36.7-1.438-1.4c.116-.119 2.858-2.948 4.041-4.039.867-.8.973-1.249.959-1.446-.019-.278-.321-.631-.848-1l1.134-1.646a3.417 3.417 0 0 1 1.709 2.5 3.9 3.9 0 0 1 -1.6 3.056c-1.141 1.064-3.93 3.942-3.957 3.975z" fill="#fff"/><g fill="#394d5c"><path d="m39.549 21.5h9.899v2h-9.899z" transform="matrix(.707 -.707 .707 .707 -2.876 38.056)"/><path d="m49 24h-5a1 1 0 0 1 -1-1v-5h2v4h4z"/><path d="m21.135 38.5h12.728v2h-12.728z" transform="matrix(.707 -.707 .707 .707 -19.876 31.014)"/><path d="m28.999 45h-7v-7h2v5h5z"/><path d="m26.999 28h2v2h-2z"/><path d="m28.999 30h2v2h-2z"/></g><path d="m43.999 45v-4h-4v4h-4v4h4v4h4v-4h4v-4z" fill="#2d75bb"/><path d="m40 15s-4.686 4-8 4-8-4-8-4 4.687-4 8-4 8 4 8 4z" fill="#ffd782"/><path d="m32 20c-3.641 0-8.446-4.066-8.649-4.239a1 1 0 0 1 0-1.522c.202-.173 5.007-4.239 8.649-4.239s8.446 4.066 8.649 4.239a1 1 0 0 1 0 1.522c-.204.173-5.008 4.239-8.649 4.239zm-6.39-5c1.651 1.232 4.446 3 6.39 3s4.738-1.768 6.39-3c-1.652-1.232-4.445-3-6.39-3s-4.742 1.768-6.391 3z" fill="#f98c96"/><circle cx="31.999" cy="15" fill="#87cee9" r="2"/><path d="m32 18a3 3 0 1 1 3-3 3 3 0 0 1 -3 3zm0-4a1 1 0 1 0 1 1 1 1 0 0 0 -1-1z" fill="#394d5c"/><path d="m16 61a4 4 0 0 1 -4-4v-4h32v4a4 4 0 0 0 4 4z" fill="#c6c4ab"/><path d="m53 57v-54a1 1 0 0 0 -1-1h-36a1 1 0 0 0 -1 1v49h-3a1 1 0 0 0 -1 1v4a5.006 5.006 0 0 0 5 5h32a5.006 5.006 0 0 0 5-5zm-40 0v-3h30v3a4.948 4.948 0 0 0 1.026 3h-28.026a3 3 0 0 1 -3-3zm27-9h-3v-2h3a1 1 0 0 0 1-1v-3h2v3a1 1 0 0 0 1 1h3v2h-3a1 1 0 0 0 -1 1v3h-2v-3a1 1 0 0 0 -1-1zm11 9a3 3 0 0 1 -6 0v-7h3a1 1 0 0 0 1-1v-4a1 1 0 0 0 -1-1h-3v-3a1 1 0 0 0 -1-1h-4a1 1 0 0 0 -1 1v3h-3a1 1 0 0 0 -1 1v4a1 1 0 0 0 1 1h3v2h-22v-48h34z"/><path d="m21 8h4v-2h-6v6h2z"/><path d="m47 12h2v-6h-6v2h4z"/><path d="m39.567 27.177-1.134 1.646c.527.365.829.718.848 1 .014.2-.092.647-.959 1.446-1.183 1.091-3.925 3.92-4.041 4.039l1.438 1.392c.027-.029 2.816-2.907 3.959-3.961a3.9 3.9 0 0 0 1.6-3.056 3.417 3.417 0 0 0 -1.711-2.506z"/><path d="m41.289 24.3a7.9 7.9 0 0 0 -8.289.418 7.863 7.863 0 0 0 -9.674.543 6.241 6.241 0 0 0 .01 9.487l3.972 3.53-3.308 3.308v-3.586h-2v7h7v-2h-3.586l3.391-3.391 3.531 3.139a1 1 0 0 0 1.328 0l9.01-8.009a6.214 6.214 0 0 0 .239-9.238l1.5-1.5h4.587v-2.001h-2.586l2.293-2.293-1.414-1.414-2.293 2.293v-2.586h-2v4.586zm.047 8.955-8.336 7.407-2.778-2.47 2.485-2.485-1.414-1.414-2.569 2.568-4.05-3.6a4.244 4.244 0 0 1 0-6.522 5.871 5.871 0 0 1 7.652 0 1 1 0 0 0 1.348 0 5.872 5.872 0 0 1 7.652 0 4.243 4.243 0 0 1 .01 6.513z"/><path d="m27 28h2v2h-2z"/><path d="m29 30h2v2h-2z"/><path d="m23 15a1 1 0 0 0 .351.761c.203.173 5.008 4.239 8.649 4.239s8.446-4.066 8.649-4.239a1 1 0 0 0 0-1.522c-.203-.173-5.008-4.239-8.649-4.239s-8.446 4.066-8.649 4.239a1 1 0 0 0 -.351.761zm8 0a1 1 0 1 1 1 1 1 1 0 0 1 -1-1zm1.607 2.938a3 3 0 0 0 0-5.876c1.886.3 4.3 1.828 5.782 2.938-1.489 1.11-3.889 2.643-5.782 2.938zm-1.214-5.876a3 3 0 0 0 0 5.876c-1.887-.296-4.293-1.828-5.783-2.938 1.49-1.11 3.89-2.643 5.783-2.938z"/></symbol><symbol id="bandage" viewBox="0 0 64 64"><title>bandage</title><path d="m23 43v-40h-20v48a10 10 0 0 0 10 10h48v-14z" fill="#ffd782"/><path d="m2.999 12h20v28h-20z" fill="#aabece"/><path d="m36.999 18h-14v-6h14l-2 3z" fill="#c6c4ab"/><g fill="#f9bb4b"><path d="m6.999 52h2v2h-2z"/><path d="m10.999 54h2v2h-2z"/><path d="m15.999 56h2v2h-2z"/></g><path d="m14.999 22v-4h-4v4h-4v4h4v10h4v-10h4v-4z" fill="#5a6470"/><path d="m61.1 46.005-37.1-3.905v-23.1h13a1 1 0 0 0 .832-1.555l-1.632-2.445 1.63-2.445a1 1 0 0 0 -.83-1.555h-13v-8a1 1 0 0 0 -1-1h-20a1 1 0 0 0 -1 1v48a11.013 11.013 0 0 0 11 11h48a1 1 0 0 0 1-1v-14a1 1 0 0 0 -.9-.995zm-39.1-32.419-6 6v-1.586a1 1 0 0 0 -1-1h-4a1 1 0 0 0 -1 1v3h-3a1 1 0 0 0 -1 1v4a1 1 0 0 0 1 1h1.586l-4.586 4.586v-18.586h18zm-10 12.414a1 1 0 0 0 -.618-.923 1.01 1.01 0 0 0 -.382-.077h-3v-2h3a1 1 0 0 0 1-1v-3h2v3a1.01 1.01 0 0 0 .077.382 1 1 0 0 0 .541.541 1.01 1.01 0 0 0 .382.077h3v2h-3a1 1 0 0 0 -1 1v9h-2zm-8 8.414 6-6v7.586a1 1 0 0 0 1 1h4a1 1 0 0 0 1-1v-9h3a1 1 0 0 0 1-1v-4a1 1 0 0 0 -1-1h-1.586l4.586-4.586v22.586h-18zm30.168-18.859.964 1.445h-11.132v-4h11.132l-.964 1.445a1 1 0 0 0 0 1.11zm-12.168-11.555v7h-18v-7zm38 56h-47a9.01 9.01 0 0 1 -9-9v-10h18v2a1 1 0 0 0 .9.995l37.1 3.905z"/><path d="m7 52h2v2h-2z"/><path d="m11 54h2v2h-2z"/><path d="m16 56h2v2h-2z"/></symbol><symbol id="sketchbook" viewBox="0 0 64 64"><title>sketchbook</title><path d="m8.999 3h46v54h-46z" fill="#87cee9"/><path d="m54.999 5v52h-44v4h48v-56z" fill="#b7e0ea"/><g fill="#f9bb4b"><path d="m6 15h-2v-5a3 3 0 0 1 3-3h5v2h-5a1 1 0 0 0 -1 1z"/><path d="m6 19h-2v-5a3 3 0 0 1 3-3h5v2h-5a1 1 0 0 0 -1 1z"/><path d="m6 23h-2v-5a3 3 0 0 1 3-3h5v2h-5a1 1 0 0 0 -1 1z"/><path d="m6 27h-2v-5a3 3 0 0 1 3-3h5v2h-5a1 1 0 0 0 -1 1z"/><path d="m6 31h-2v-5a3 3 0 0 1 3-3h5v2h-5a1 1 0 0 0 -1 1z"/><path d="m6 35h-2v-5a3 3 0 0 1 3-3h5v2h-5a1 1 0 0 0 -1 1z"/><path d="m6 39h-2v-5a3 3 0 0 1 3-3h5v2h-5a1 1 0 0 0 -1 1z"/><path d="m6 43h-2v-5a3 3 0 0 1 3-3h5v2h-5a1 1 0 0 0 -1 1z"/><path d="m6 47h-2v-5a3 3 0 0 1 3-3h5v2h-5a1 1 0 0 0 -1 1z"/><path d="m6 49h-2v-3a3 3 0 0 1 3-3h5v2h-5a1 1 0 0 0 -1 1z"/><path d="m6 50h-2v-1h.17a3.006 3.006 0 0 1 2.83-2h5v2h-5a1 1 0 0 0 -1 1z"/><path d="m12 53h-5a3 3 0 0 1 -3-3v-1h2v1a1 1 0 0 0 1 1h5z"/></g><path d="m42.999 13h4v22h-4z" fill="#b11e48"/><path d="m42.999 9h4v4h-4z" fill="#ffd782"/><path d="m42.999 35h4v4h-4z" fill="#ffd782"/><path d="m45 47a1 1 0 0 1 -1-1v-3a1 1 0 0 1 2 0v3a1 1 0 0 1 -1 1z" fill="#394d5c"/><path d="m42.999 39 1 4h2l1-4z" fill="#cfdfe8"/><path d="m52 23h-2v-9h-3v-2h4a1 1 0 0 1 1 1z" fill="#394d5c"/><circle cx="25.999" cy="18" fill="#ffd782" r="11"/><path d="m26 7c0 11 11 11 11 11a11 11 0 0 0 -11-11z" fill="#394d5c"/><path d="m26 7a11 11 0 0 0 -11 11s11 0 11-11z" fill="#394d5c"/><path d="m22.999 19h2v2h-2z" fill="#394d5c"/><path d="m26.999 19h2v2h-2z" fill="#394d5c"/><path d="m26 26c-4.572 0-6.559-3.112-6.97-4.757l1.939-.493c.031.133.911 3.25 5.031 3.25 4.171 0 5.022-3.21 5.03-3.243l1.94.486c-.412 1.645-2.399 4.757-6.97 4.757z" fill="#394d5c"/><path d="m31.999 49v4h4v-4h4v-4h-4v-12h-4v12h-4v4z" fill="#fcf05a"/><path d="m25 42c0 3.314-2.238 6-5 6s-6.7-4.159-5-7a36.853 36.853 0 0 0 4-9s6 6 6 10z" fill="#e1462b"/><path d="m23 45a3 3 0 0 1 -6 0c0-2 3-5 3-5s3 3 3 5z" fill="#fff69a"/><path d="m36.999 27h2v2h-2z" fill="#b11e48"/><path d="m25.999 33h2v2h-2z" fill="#b11e48"/><path d="m20.999 51h2v2h-2z" fill="#b11e48"/><path d="m36.999 7h2v2h-2z" fill="#b11e48"/><path d="m7 53h1v5h2v4h50v-58h-4v-2h-48v5h-1a3 3 0 0 0 -3 3v40a3 3 0 0 0 3 3zm51-47v54h-46v-2h44v-52zm-48-2h44v52h-44v-3h2v-2h-2v-2h2v-2h-2v-2h2v-2h-2v-2h2v-2h-2v-2h2v-2h-2v-2h2v-2h-2v-2h2v-2h-2v-2h2v-2h-2v-2h2v-2h-2v-2h2v-2h-2v-2h2v-2h-2v-2h2v-2h-2zm-3 5h1v2h-1a2.966 2.966 0 0 0 -1 .184v-1.184a1 1 0 0 1 1-1zm-1 5a1 1 0 0 1 1-1h1v2h-1a2.966 2.966 0 0 0 -1 .184zm0 4a1 1 0 0 1 1-1h1v2h-1a2.966 2.966 0 0 0 -1 .184zm0 4a1 1 0 0 1 1-1h1v2h-1a2.966 2.966 0 0 0 -1 .184zm0 4a1 1 0 0 1 1-1h1v2h-1a2.966 2.966 0 0 0 -1 .184zm0 4a1 1 0 0 1 1-1h1v2h-1a2.966 2.966 0 0 0 -1 .184zm0 4a1 1 0 0 1 1-1h1v2h-1a2.966 2.966 0 0 0 -1 .184zm0 4a1 1 0 0 1 1-1h1v2h-1a2.966 2.966 0 0 0 -1 .184zm0 4a1 1 0 0 1 1-1h1v2h-1a2.966 2.966 0 0 0 -1 .184zm0 4a1 1 0 0 1 1-1h1v2h-1a2.991 2.991 0 0 0 -1 .176zm1 3h1v2h-1a1 1 0 0 1 0-2z"/><path d="m42.03 39.243 1 4a1 1 0 0 0 .97.757v2a1 1 0 0 0 2 0v-2a1 1 0 0 0 .97-.757l1-4a2.016 2.016 0 0 0 .03-.243v-25h2v9h2v-10a1 1 0 0 0 -1-1h-3v-3a1 1 0 0 0 -1-1h-4a1 1 0 0 0 -1 1v30a2.016 2.016 0 0 0 .03.243zm3.189 2.757h-.438l-.5-2h1.438zm-1.219-4v-2h2v2zm2-4h-2v-20h2zm-2-24h2v2h-2z"/><path d="m26 30a12 12 0 1 0 -12-12 12.013 12.013 0 0 0 12 12zm0-2a10.01 10.01 0 0 1 -9.953-9.079c2.287-.266 7.71-1.449 9.953-6.643 2.243 5.194 7.666 6.377 9.953 6.643a10.01 10.01 0 0 1 -9.953 9.079zm9.94-11.078c-2.468-.3-8.363-1.769-8.9-8.867a10.017 10.017 0 0 1 8.9 8.867zm-10.983-8.867c-.534 7.1-6.429 8.565-8.9 8.867a10.017 10.017 0 0 1 8.9-8.867z"/><path d="m23 19h2v2h-2z"/><path d="m27 19h2v2h-2z"/><path d="m26 24c-4.119 0-5-3.117-5.031-3.25l-1.939.493c.411 1.645 2.398 4.757 6.97 4.757s6.559-3.112 6.97-4.757l-1.94-.486c-.009.033-.859 3.243-5.03 3.243z"/><path d="m37 33a1 1 0 0 0 -1-1h-4a1 1 0 0 0 -1 1v11h-3a1 1 0 0 0 -1 1v4a1 1 0 0 0 1 1h3v3a1 1 0 0 0 1 1h4a1 1 0 0 0 1-1v-3h3a1 1 0 0 0 1-1v-4a1 1 0 0 0 -1-1h-3zm2 13v2h-3a1 1 0 0 0 -1 1v3h-2v-3a1 1 0 0 0 -1-1h-3v-2h3a1 1 0 0 0 1-1v-11h2v11a1 1 0 0 0 1 1z"/><path d="m19.038 48.87c.063.016.123.039.188.052a4.155 4.155 0 0 0 .774.078c3.309 0 6-3.14 6-7 0-4.291-5.648-10.063-6.293-10.707a1 1 0 0 0 -1.677.464 36.28 36.28 0 0 1 -3.887 8.728 4.518 4.518 0 0 0 .206 4.683 7.888 7.888 0 0 0 4.689 3.702zm-1.038-3.87c0-.874 1.018-2.381 2-3.525.982 1.144 2 2.651 2 3.525a2 2 0 0 1 -1.543 1.942 3.154 3.154 0 0 1 -.457.058 2.213 2.213 0 0 1 -.439-.052 2 2 0 0 1 -1.561-1.948zm-2.143-3.485a41.371 41.371 0 0 0 3.585-7.574c1.87 2.121 4.558 5.687 4.558 8.059a6.013 6.013 0 0 1 -.254 1.7 14.3 14.3 0 0 0 -3.039-4.405 1 1 0 0 0 -1.414 0c-.3.3-2.67 2.728-3.188 4.913l-.015-.023a2.722 2.722 0 0 1 -.233-2.67z"/><path d="m37 27h2v2h-2z"/><path d="m26 33h2v2h-2z"/><path d="m21 51h2v2h-2z"/><path d="m37 7h2v2h-2z"/></symbol><symbol id="alcohol" viewBox="0 0 64 64"><title>alcohol</title><path d="m20 27h24a0 0 0 0 1 0 0v32a2 2 0 0 1 -2 2h-20a2 2 0 0 1 -2-2v-32a0 0 0 0 1 0 0z" fill="#cfdfe8"/><path d="m20 37h24a0 0 0 0 1 0 0v22a2 2 0 0 1 -2 2h-20a2 2 0 0 1 -2-2v-22a0 0 0 0 1 0 0z" fill="#87cee9"/><path d="m43.999 27h-24l6-6h12z" fill="#dfeff7"/><path d="m25.999 15h12v6h-12z" fill="#2d75bb"/><g fill="#215a89"><path d="m30 9v6h4v-6a2 2 0 0 1 2-2h22l-6-4h-16a6 6 0 0 0 -6 6z"/><path d="m22.999 30h2v31h-2z"/><path d="m23.999 30h5v2h-5z"/><path d="m23.999 36h5v2h-5z"/><path d="m23.999 42h5v2h-5z"/><path d="m23.999 48h5v2h-5z"/><path d="m23.999 54h5v2h-5z"/></g><path d="m37.999 54h2v2h-2z" fill="#dfeff7"/><path d="m33.999 51h2v2h-2z" fill="#dfeff7"/><path d="m37.999 46h2v2h-2z" fill="#dfeff7"/><path d="m31.999 41h2v2h-2z" fill="#dfeff7"/><path d="m58.957 7.29a1 1 0 0 0 -.4-1.122l-6-4a1.006 1.006 0 0 0 -.557-.168h-16a7.008 7.008 0 0 0 -7 7v5h-3a1 1 0 0 0 -1 1v5.586l-5.706 5.706a2.124 2.124 0 0 0 -.2.288.948.948 0 0 0 -.033.094 2.182 2.182 0 0 0 -.061.326v32a3 3 0 0 0 3 3h20a3 3 0 0 0 3-3v-32a2.182 2.182 0 0 0 -.066-.326.948.948 0 0 0 -.033-.094 2.124 2.124 0 0 0 -.2-.288l-5.701-5.706v-5.586a1 1 0 0 0 -1-1h-3v-5a1 1 0 0 1 1-1h22a1 1 0 0 0 .957-.71zm-15.957 28.71h-18v-4h4v-2h-6v6h-2v-8h22zm-22 23v-21h2v22h-1a1 1 0 0 1 -1-1zm21 1h-17v-4h4v-2h-4v-4h4v-2h-4v-4h4v-2h-4v-4h18v21a1 1 0 0 1 -1 1zm-19.586-34 4-4h11.172l4 4zm14.586-6h-10v-4h10zm-1-14a3 3 0 0 0 -3 3v5h-2v-5a5.006 5.006 0 0 1 5-5h15.7l3 2z"/><path d="m38 54h2v2h-2z"/><path d="m34 51h2v2h-2z"/><path d="m38 46h2v2h-2z"/><path d="m32 41h2v2h-2z"/></symbol><symbol id="cream" viewBox="0 0 64 64"><title>cream</title><rect fill="#2d75bb" height="21" rx="2" width="32" x="27.999" y="40"/><path d="m23.999 61h-20v-42l2-8h16l2 8z" fill="#2d75bb"/><path d="m5.999 3h16v8h-16z" fill="#ffd782"/><path d="m18 8h-8a1 1 0 0 1 -1-1v-4a1 1 0 0 1 1-1h8a1 1 0 0 1 1 1v4a1 1 0 0 1 -1 1zm-7-2h6v-2h-6z" fill="#f9bb4b"/><path d="m6 6h16v2h-16z" fill="#efa52e"/><path d="m3.999 23h20v30h-20z" fill="#ffd782"/><path d="m7 56h2v2h-2z" fill="#f4f4e6"/><path d="m11 56h2v2h-2z" fill="#f4f4e6"/><path d="m14 31a3.8 3.8 0 0 0 -5 0 3.551 3.551 0 0 0 0 5l5 4 5-4a3.55 3.55 0 0 0 0-5 3.8 3.8 0 0 0 -5 0z" fill="#b11e48"/><path d="m17.378 28.5h4.243v2h-4.243z" fill="#fff" transform="matrix(.707 -.707 .707 .707 -15.148 22.429)"/><path d="m5.55 37.5h9.899v2h-9.899z" fill="#fff" transform="matrix(.707 -.707 .707 .707 -24.148 18.701)"/><path d="m44 46a3.8 3.8 0 0 0 -5 0 3.551 3.551 0 0 0 0 5l5 4 5-4a3.55 3.55 0 0 0 0-5 3.8 3.8 0 0 0 -5 0z" fill="#b11e48"/><path d="m47.378 43.5h4.243v2h-4.243z" fill="#fff" transform="matrix(.707 -.707 .707 .707 -16.968 48.035)"/><path d="m35.55 52.5h9.899v2h-9.899z" fill="#fff" transform="matrix(.707 -.707 .707 .707 -25.968 44.307)"/><path d="m4 18h12v2h-12z" fill="#f4f4e6"/><path d="m18 18h6v2h-6z" fill="#f4f4e6"/><path d="m9 44h10v2h-10z" fill="#b11e48"/><path d="m7 48h14v2h-14z" fill="#b11e48"/><path d="m32.999 36h22v4h-22z" fill="#1a5484"/><path d="m30.999 30h26v6h-26z" fill="#ffd782"/><path d="m33 47h-2v-3a1 1 0 0 1 1-1h3v2h-2z" fill="#f4f4e6"/><path d="m56 58h-5v-2h4v-4h2v5a1 1 0 0 1 -1 1z" fill="#f4f4e6"/><g fill="#efa52e"><path d="m35 30h2v3h-2z"/><path d="m39 30h2v3h-2z"/><path d="m43 30h2v3h-2z"/><path d="m47 30h2v3h-2z"/><path d="m51 30h2v3h-2z"/></g><path d="m24 62a1 1 0 0 0 1-1v-42a.984.984 0 0 0 -.03-.242l-1.97-7.881v-7.877a1 1 0 0 0 -1-1h-16a1 1 0 0 0 -1 1v7.877l-1.97 7.881a.984.984 0 0 0 -.03.242v42a1 1 0 0 0 1 1zm-19-2v-6h18v6zm11-40v-2h-10.719l1.5-6h14.438l1.5 6h-4.719v2h5v2h-18v-2zm-9-12h14v2h-14zm-2 16h18v28h-18zm16-18h-2v-2h2zm-4-2v2h-6v-2zm-8 0v2h-2v-2z"/><path d="m7 56h2v2h-2z"/><path d="m11 56h2v2h-2z"/><path d="m20.293 27.293-2.093 2.088a4.871 4.871 0 0 0 -4.2.375 4.826 4.826 0 0 0 -5.674.5 4.542 4.542 0 0 0 .049 6.52l1.35 1.08-3.432 3.437 1.414 1.414 3.593-3.589 2.7 2.162 5.674-4.541a4.524 4.524 0 0 0 .223-6.222l1.81-1.81zm-1.918 7.926-4.375 3.501-1.281-1.02 1.988-1.988-1.414-1.414-2.146 2.146-1.473-1.183a2.557 2.557 0 0 1 0-3.522 2.8 2.8 0 0 1 3.652 0l.674.615.674-.615a2.8 2.8 0 0 1 3.652 0 2.571 2.571 0 0 1 .049 3.48z"/><path d="m49.9 45.517 1.81-1.81-1.414-1.414-2.096 2.089a4.866 4.866 0 0 0 -4.2.374 4.827 4.827 0 0 0 -5.674.505 4.542 4.542 0 0 0 .049 6.52l1.35 1.08-3.432 3.432 1.414 1.414 3.593-3.589 2.7 2.162 5.674-4.541a4.524 4.524 0 0 0 .223-6.222zm-1.522 4.7-4.378 3.503-1.281-1.02 1.988-1.988-1.414-1.414-2.146 2.146-1.473-1.178a2.557 2.557 0 0 1 0-3.522 2.8 2.8 0 0 1 3.652 0l.674.615.674-.615a2.8 2.8 0 0 1 3.652 0 2.571 2.571 0 0 1 .049 3.48z"/><path d="m9 44h10v2h-10z"/><path d="m7 48h14v2h-14z"/><path d="m30 30v6a1 1 0 0 0 1 1h1v2h-2a3 3 0 0 0 -3 3v17a3 3 0 0 0 3 3h28a3 3 0 0 0 3-3v-17a3 3 0 0 0 -3-3h-2v-2h1a1 1 0 0 0 1-1v-6a1 1 0 0 0 -1-1h-26a1 1 0 0 0 -1 1zm29 12v17a1 1 0 0 1 -1 1h-28a1 1 0 0 1 -1-1v-17a1 1 0 0 1 1-1h28a1 1 0 0 1 1 1zm-5-3h-20v-2h20zm-22-8h3v2h2v-2h2v2h2v-2h2v2h2v-2h2v2h2v-2h2v2h2v-2h3v4h-24z"/><path d="m31 47h2v-2h2v-2h-4z"/><path d="m55 56h-4v2h6v-6h-2z"/></symbol><symbol id="open" viewBox="0 0 64 64"><title>open</title><circle cx="31.999" cy="12" fill="#ffbd48" r="2"/><path d="m7.294 15h23.409v1.999h-23.409z" fill="#aabece" transform="matrix(.94 -.342 .342 .94 -4.325 7.46)"/><path d="m43.999 4.295h1.999v23.409h-1.999z" fill="#aabece" transform="matrix(.342 -.94 .94 .342 14.584 52.822)"/><path d="m2.999 20h58v34h-58z" fill="#87cee9"/><path d="m2.999 28h58v18h-58z" fill="#215a89"/><path d="m50.999 43h-3.744l-3-10h-.256v10h-2v-12h3.744l3 10h.256v-10h2z" fill="#fcf05a"/><path d="m21 43h-8v-12h8zm-6-2h4v-8h-4z" fill="#fcf05a"/><path d="m25 43h-2v-12h8v8h-6zm0-6h4v-4h-4z" fill="#fcf05a"/><path d="m39.999 43h-7v-12h7v2h-5v8h5z" fill="#fcf05a"/><path d="m33.999 36h6v2h-6z" fill="#fcf05a"/><g fill="#f4f4e6"><path d="m55.999 23h2v2h-2z"/><path d="m51.999 23h2v2h-2z"/><path d="m47.999 23h2v2h-2z"/><path d="m5.999 49h2v2h-2z"/><path d="m9.999 49h2v2h-2z"/><path d="m13.999 49h2v2h-2z"/></g><path d="m62 19h-5.825l-21.275-7.737a2.986 2.986 0 0 0 -5.794 0l-21.281 7.737h-5.825v36h60zm-2 26h-56v-16h56zm-28-34a1 1 0 1 1 -1 1 1 1 0 0 1 1-1zm-2.685 2.313a2.98 2.98 0 0 0 5.37 0l15.64 5.687h-36.65zm-25.315 7.687h56v6h-56zm0 32v-6h56v6z"/><path d="m44 33h.256l3 10h3.744v-12h-2v10h-.256l-3-10h-3.744v12h2z"/><path d="m21 31h-8v12h8zm-2 10h-4v-8h4z"/><path d="m25 39h6v-8h-8v12h2zm0-6h4v4h-4z"/><path d="m40 41h-5v-3h5v-2h-5v-3h5v-2h-7v12h7z"/><path d="m56 23h2v2h-2z"/><path d="m52 23h2v2h-2z"/><path d="m48 23h2v2h-2z"/><path d="m6 49h2v2h-2z"/><path d="m10 49h2v2h-2z"/><path d="m14 49h2v2h-2z"/></symbol><symbol id="adhesive-tape" viewBox="0 0 64 64"><title>adhesive-tape</title><path d="m61 31c0-8.837-2.686-16-6-16h-10c-3.313 0-6 7.163-6 16s2.687 16 6 16h10c3.313 0 6-7.163 6-16z" fill="#dae9f2"/><ellipse cx="54.999" cy="31" fill="#f4f4e6" rx="6" ry="16"/><path d="m7 33v10c0 3.314 7.164 6 16 6s16-2.686 16-6v-10" fill="#cfdfe8"/><path d="m23 17c-8.836 0-16 2.686-16 6v10c0 3.314 7.164 6 16 6s16-2.686 16-6v-10c0-3.314-7.164-6-16-6z" fill="#aabece"/><ellipse cx="54.999" cy="31" fill="#6d8ba0" rx="2" ry="9"/><ellipse cx="22.999" cy="23" fill="#f4f4e6" rx="16" ry="6"/><ellipse cx="22.999" cy="23" fill="#6d8ba0" rx="9" ry="2"/><path d="m2.999 24h4v10h-4z" fill="#6d8ba0"/><g fill="#f4f4e6"><path d="m46 19h2v2h-2z"/><path d="m43 22h2v2h-2z"/><path d="m10 41h2v2h-2z"/><path d="m16 34h2v2h-2z"/></g><path d="m55 21c-2.784 0-3 7.654-3 10s.216 10 3 10 3-7.654 3-10-.216-10-3-10zm0 17.616a22.492 22.492 0 0 1 -1-7.616 22.492 22.492 0 0 1 1-7.616 22.492 22.492 0 0 1 1 7.616 22.492 22.492 0 0 1 -1 7.616z"/><path d="m55 14h-10c-2.614 0-4.532 2.9-5.693 6.928-2.207-3.212-9.426-4.928-16.307-4.928-8.241 0-17 2.453-17 7h-4v12h4v8c0 4.547 8.759 7 17 7 8.2 0 16.9-2.428 16.991-6.926 1.176 2.946 2.854 4.926 5.009 4.926h10c4.547 0 7-8.759 7-17s-2.453-17-7-17zm-49 19h-2v-8h2zm17-15c8.585 0 15 2.64 15 5s-6.415 5-15 5-15-2.64-15-5 6.415-5 15-5zm15 25c0 2.36-6.415 5-15 5s-15-2.64-15-5v-6.587c3.053 2.344 9.149 3.587 15 3.587s11.947-1.243 15-3.587zm0-12v2c0 2.36-6.415 5-15 5s-15-2.64-15-5v-6.587c3.053 2.344 9.149 3.587 15 3.587 6.035 0 12.333-1.321 15.28-3.811a41.8 41.8 0 0 0 -.28 4.811zm7 15c-2.36 0-5-6.415-5-15s2.64-15 5-15h6.587c-2.344 3.053-3.587 9.149-3.587 15s1.243 11.947 3.587 15zm10 0c-2.36 0-5-6.415-5-15s2.64-15 5-15 5 6.415 5 15-2.64 15-5 15z"/><path d="m23 26c2.346 0 10-.217 10-3s-7.654-3-10-3-10 .217-10 3 7.654 3 10 3zm0-4a22.487 22.487 0 0 1 7.616 1 22.487 22.487 0 0 1 -7.616 1 22.487 22.487 0 0 1 -7.616-1 22.487 22.487 0 0 1 7.616-1z"/><path d="m46 19h2v2h-2z"/><path d="m43 22h2v2h-2z"/><path d="m10 41h2v2h-2z"/><path d="m16 34h2v2h-2z"/></symbol></svg>