<?xml version="1.0" encoding="utf-8"?>
<!-- Generator: Adobe Illustrator 25.3.1, SVG Export Plug-In . SVG Version: 6.00 Build 0)  -->
<svg version="1.1" xmlns="http://www.w3.org/2000/svg" xmlns:xlink="http://www.w3.org/1999/xlink" x="0px" y="0px"
	 viewBox="0 0 356.26 159.08" style="enable-background:new 0 0 356.26 159.08;" xml:space="preserve">
<style type="text/css">
	.st0{fill:none;stroke:#000000;stroke-width:0.5;stroke-linecap:round;stroke-linejoin:round;}
	.st1{display:none;fill:#6C150E;stroke:#000000;stroke-width:0.5;stroke-linecap:round;stroke-linejoin:round;}
	.st2{display:none;fill:none;stroke:#FFFFFF;stroke-width:6;stroke-miterlimit:10;}
	.st3{display:none;}
	.st4{stroke:#000000;stroke-width:0.5669;stroke-miterlimit:10;}
</style>
<g id="Ebene_4">
	<path class="st0" d="M267.04,56.95"/>
	<g>
		<polygon points="185.93,0.26 168.57,49.86 123.95,49.86 128.91,35.69 159.35,35.69 166.8,14.43 124.28,14.43 99.46,85.29 
			0.25,85.29 30.03,0.26 100.9,0.26 81.05,56.95 66.87,56.95 81.76,14.43 39.24,14.43 19.39,71.12 90.26,71.12 115.07,0.26 		"/>
		<path d="M99.46,85.54H0.25c-0.08,0-0.16-0.04-0.2-0.11s-0.06-0.15-0.03-0.23L29.79,0.18c0.04-0.1,0.13-0.17,0.24-0.17h70.87
			c0.08,0,0.16,0.04,0.2,0.11c0.05,0.07,0.06,0.15,0.03,0.23L81.29,57.03c-0.04,0.1-0.13,0.17-0.24,0.17H66.87
			c-0.08,0-0.16-0.04-0.2-0.11s-0.06-0.15-0.03-0.23l14.77-42.19H39.42L19.74,70.87h70.34l24.75-70.69c0.04-0.1,0.13-0.17,0.24-0.17
			h70.86c0.08,0,0.16,0.04,0.2,0.11c0.05,0.07,0.06,0.15,0.03,0.23l-17.36,49.6c-0.04,0.1-0.13,0.17-0.24,0.17h-44.62
			c-0.08,0-0.16-0.04-0.2-0.11s-0.06-0.15-0.03-0.23l4.96-14.17c0.04-0.1,0.13-0.17,0.24-0.17h30.26l7.27-20.76h-41.99L99.7,85.37
			C99.66,85.47,99.57,85.54,99.46,85.54z M0.6,85.04h98.68l24.76-70.69c0.04-0.1,0.13-0.17,0.24-0.17h42.52
			c0.08,0,0.16,0.04,0.2,0.11c0.05,0.07,0.06,0.15,0.03,0.23l-7.45,21.26c-0.04,0.1-0.13,0.17-0.24,0.17h-30.26l-4.78,13.67h44.09
			l17.19-49.1h-70.33L90.5,71.2c-0.04,0.1-0.13,0.17-0.24,0.17H19.39c-0.08,0-0.16-0.04-0.2-0.11s-0.06-0.15-0.03-0.23L39,14.35
			c0.04-0.1,0.13-0.17,0.24-0.17h42.52c0.08,0,0.16,0.04,0.2,0.11c0.05,0.07,0.06,0.15,0.03,0.23L67.22,56.7h13.65l19.68-56.19
			H30.21L0.6,85.04z"/>
	</g>
	<path class="st0" d="M299.19,67.13"/>
	<path class="st0" d="M268.41,50.9"/>
	<path class="st0" d="M271.64,36.72"/>
	<path class="st0" d="M299.19,67.13"/>
	<path class="st0" d="M282.59,50.9"/>
	<g>
		<polygon points="270.97,0.26 241.19,85.29 141.98,85.29 151.91,56.95 166.09,56.95 161.13,71.12 231.99,71.12 251.84,14.43 
			209.32,14.43 194.43,56.95 180.26,56.95 200.11,0.26 		"/>
		<path d="M241.19,85.54h-99.21c-0.08,0-0.16-0.04-0.2-0.11s-0.06-0.15-0.03-0.23l9.93-28.34c0.04-0.1,0.13-0.17,0.24-0.17h14.18
			c0.08,0,0.16,0.04,0.2,0.11s0.06,0.15,0.03,0.23l-4.84,13.84h70.33l19.68-56.19H209.5l-14.83,42.35c-0.04,0.1-0.13,0.17-0.24,0.17
			h-14.17c-0.08,0-0.16-0.04-0.2-0.11s-0.06-0.15-0.03-0.23l19.85-56.69c0.04-0.1,0.13-0.17,0.24-0.17h70.86
			c0.08,0,0.16,0.04,0.2,0.11c0.05,0.07,0.06,0.15,0.03,0.23l-29.78,85.03C241.39,85.47,241.3,85.54,241.19,85.54z M142.33,85.04
			h98.68l29.61-84.53h-70.33L180.61,56.7h13.64l14.83-42.35c0.04-0.1,0.13-0.17,0.24-0.17h42.52c0.08,0,0.16,0.04,0.2,0.11
			c0.05,0.07,0.06,0.15,0.03,0.23L232.23,71.2c-0.04,0.1-0.13,0.17-0.24,0.17h-70.86c-0.08,0-0.16-0.04-0.2-0.11
			s-0.06-0.15-0.03-0.23l4.84-13.84h-13.65L142.33,85.04z"/>
	</g>
	<g>
		<path d="M318.02,98.82H29.12c-2.67-4.63-7.67-7.74-13.4-7.74c-8.53,0-15.46,6.93-15.46,15.46c0,8.55,6.93,15.48,15.46,15.48
			c5.73,0,10.73-3.11,13.4-7.74h287.55l39.34-7.74L318.02,98.82z M15.71,114.29c-4.27,0-7.74-3.46-7.74-7.74
			c0-4.27,3.47-7.73,7.74-7.73c4.28,0,7.74,3.46,7.74,7.73C23.45,110.83,19.99,114.29,15.71,114.29z"/>
		<path d="M15.71,122.28C7.05,122.28,0,115.22,0,106.55c0-8.67,7.05-15.71,15.71-15.71c5.55,0,10.73,2.96,13.55,7.74h288.76
			c0.02,0,0.03,0,0.05,0l37.99,7.73c0.12,0.02,0.2,0.13,0.2,0.25s-0.08,0.22-0.2,0.24l-39.34,7.74l-287.46,0
			C26.44,119.31,21.26,122.28,15.71,122.28z M15.71,91.33c-8.39,0-15.21,6.83-15.21,15.21c0,8.4,6.83,15.23,15.21,15.23
			c5.42,0,10.47-2.92,13.19-7.61c0.04-0.08,0.13-0.12,0.22-0.12h287.55l38.07-7.49l-36.74-7.47H29.12c-0.09,0-0.17-0.05-0.22-0.12
			C26.19,94.25,21.13,91.33,15.71,91.33z M15.71,114.54c-4.4,0-7.99-3.58-7.99-7.99c0-4.4,3.58-7.98,7.99-7.98s7.99,3.58,7.99,7.98
			C23.7,110.95,20.12,114.54,15.71,114.54z M15.71,99.07c-4.13,0-7.49,3.35-7.49,7.48c0,4.13,3.36,7.49,7.49,7.49
			s7.49-3.36,7.49-7.49C23.2,102.43,19.84,99.07,15.71,99.07z"/>
	</g>
	<path d="M285.15,0.25l-12.77,36.47l-4.97,14.17l-2.11,6.06l25.5,28.34l45.36-28.34l19.85-56.7H285.15z M324.65,49.35L296.2,67.13
		l-14.61-16.24l4.96-14.17l7.81-22.29h42.52L324.65,49.35z"/>
	<polygon class="st1" points="336.88,14.43 324.65,49.35 296.2,67.13 281.59,50.89 286.55,36.72 294.36,14.43 	"/>
	<line class="st2" x1="307.69" y1="25.19" x2="307.69" y2="45.04"/>
	<line class="st2" x1="317.62" y1="35.12" x2="297.77" y2="35.12"/>
</g>
<g id="Ebene_5" class="st3">
</g>
<g id="Ebene_3">
	<g id="Ebene_6">
		<g>
			<path class="st4" d="M35.94,146.93H34l7.49-19.9h1.71l7.44,19.9h-1.96l-1.91-5.23h-8.96L35.94,146.93z M38.48,139.85h7.64
				l-3.82-10.57L38.48,139.85z"/>
			<path class="st4" d="M58.12,146.93h-1.76v-19.9h5.09c0.85,0,1.64,0.09,2.36,0.28c0.73,0.19,1.35,0.49,1.89,0.91
				c0.53,0.42,0.94,0.97,1.24,1.65c0.29,0.67,0.44,1.5,0.44,2.47c0,0.73-0.11,1.4-0.34,1.99c-0.23,0.6-0.54,1.12-0.93,1.56
				c-0.39,0.44-0.86,0.79-1.4,1.05c-0.54,0.26-1.13,0.43-1.76,0.51l5.07,9.47h-2.15l-4.8-9.3h-2.94V146.93z M58.12,135.88h3.06
				c1.42,0,2.51-0.29,3.28-0.89c0.77-0.59,1.15-1.48,1.15-2.66c0-0.66-0.11-1.21-0.32-1.66c-0.21-0.45-0.51-0.81-0.88-1.1
				c-0.38-0.28-0.83-0.49-1.37-0.62c-0.54-0.13-1.13-0.2-1.79-0.2h-3.13V135.88z"/>
			<path class="st4" d="M79.44,146.93h-1.76v-18.1h-5.8v-1.8h13.37v1.8h-5.8V146.93z"/>
			<path class="st4" d="M92.76,146.93H91v-19.9h1.76V146.93z"/>
			<path class="st4" d="M108.92,130.23c-0.38-0.6-0.86-1.08-1.44-1.45s-1.3-0.55-2.13-0.55c-0.42,0-0.86,0.08-1.3,0.22
				c-0.44,0.15-0.84,0.38-1.2,0.69c-0.36,0.31-0.65,0.7-0.87,1.17c-0.22,0.47-0.33,1.02-0.33,1.66s0.11,1.16,0.32,1.57
				c0.21,0.41,0.49,0.76,0.84,1.05c0.35,0.29,0.75,0.53,1.2,0.72c0.45,0.19,0.92,0.37,1.4,0.56c0.6,0.22,1.21,0.47,1.82,0.73
				c0.61,0.26,1.16,0.6,1.65,1.03c0.49,0.42,0.89,0.96,1.2,1.6c0.31,0.65,0.46,1.47,0.46,2.46c0,0.99-0.17,1.85-0.5,2.57
				c-0.33,0.72-0.76,1.32-1.29,1.79c-0.53,0.47-1.13,0.82-1.81,1.04c-0.68,0.22-1.36,0.34-2.04,0.34c-0.52,0-1.04-0.06-1.57-0.18
				c-0.52-0.12-1.02-0.3-1.49-0.55c-0.47-0.24-0.91-0.55-1.32-0.93c-0.41-0.37-0.77-0.81-1.08-1.29l1.52-1.29
				c0.38,0.71,0.9,1.31,1.58,1.79c0.68,0.48,1.47,0.72,2.39,0.72c0.44,0,0.89-0.08,1.35-0.24c0.46-0.16,0.87-0.4,1.24-0.73
				c0.37-0.33,0.67-0.73,0.91-1.21s0.36-1.04,0.36-1.67c0-0.69-0.12-1.27-0.36-1.73s-0.55-0.84-0.94-1.15
				c-0.39-0.31-0.84-0.57-1.35-0.77c-0.51-0.21-1.04-0.41-1.59-0.62c-0.57-0.21-1.13-0.44-1.69-0.7c-0.56-0.26-1.05-0.6-1.49-1.03
				c-0.44-0.42-0.8-0.94-1.07-1.56s-0.4-1.38-0.4-2.28c0-0.96,0.17-1.78,0.5-2.47c0.33-0.69,0.77-1.26,1.31-1.71
				c0.54-0.45,1.13-0.78,1.79-0.98c0.65-0.21,1.3-0.31,1.93-0.31c1.18,0,2.18,0.24,3.01,0.72c0.83,0.48,1.46,1.04,1.89,1.7
				L108.92,130.23z"/>
			<path class="st4" d="M122.6,146.93h-1.76v-18.1h-5.8v-1.8h13.37v1.8h-5.8V146.93z"/>
			<path class="st4" d="M166.72,143.7c-0.29,0.51-0.65,0.98-1.07,1.43s-0.9,0.85-1.44,1.19c-0.55,0.34-1.15,0.61-1.81,0.81
				c-0.66,0.2-1.38,0.3-2.17,0.3c-1.31,0-2.51-0.26-3.62-0.79c-1.11-0.53-2.07-1.25-2.86-2.18c-0.8-0.93-1.42-2.03-1.87-3.3
				c-0.45-1.28-0.67-2.67-0.67-4.19c0-1.52,0.23-2.91,0.69-4.19c0.46-1.28,1.09-2.38,1.9-3.3c0.81-0.93,1.76-1.65,2.86-2.18
				c1.1-0.52,2.3-0.79,3.59-0.79c0.64,0,1.26,0.08,1.87,0.23c0.61,0.15,1.19,0.37,1.73,0.64c0.54,0.28,1.03,0.61,1.47,0.99
				c0.44,0.39,0.81,0.82,1.1,1.31l-1.47,1.24c-0.18-0.32-0.42-0.64-0.72-0.96c-0.3-0.32-0.66-0.6-1.06-0.84
				c-0.41-0.24-0.85-0.44-1.33-0.59c-0.48-0.15-1-0.22-1.55-0.22c-1.13,0-2.13,0.23-3.02,0.7c-0.89,0.47-1.64,1.1-2.26,1.89
				c-0.62,0.79-1.09,1.71-1.42,2.76c-0.33,1.05-0.49,2.15-0.49,3.31s0.17,2.26,0.5,3.31c0.33,1.05,0.81,1.97,1.43,2.76
				s1.37,1.42,2.26,1.89c0.89,0.47,1.89,0.7,3,0.7c1,0,1.94-0.23,2.84-0.7c0.9-0.47,1.65-1.22,2.25-2.25L166.72,143.7z"/>
			<path class="st4" d="M189.76,136.98c0,1.52-0.23,2.91-0.69,4.19c-0.46,1.27-1.09,2.37-1.9,3.3c-0.81,0.93-1.76,1.65-2.86,2.18
				c-1.1,0.52-2.3,0.79-3.59,0.79c-1.29,0-2.49-0.26-3.59-0.79c-1.1-0.53-2.06-1.25-2.86-2.18c-0.81-0.93-1.44-2.03-1.9-3.3
				c-0.46-1.28-0.69-2.67-0.69-4.19c0-1.52,0.23-2.91,0.69-4.19c0.46-1.28,1.09-2.38,1.9-3.3c0.81-0.93,1.76-1.65,2.86-2.18
				c1.1-0.52,2.3-0.79,3.59-0.79c1.29,0,2.48,0.26,3.59,0.79c1.1,0.53,2.06,1.25,2.86,2.18c0.81,0.93,1.44,2.03,1.9,3.3
				C189.53,134.07,189.76,135.46,189.76,136.98z M187.9,136.99c0-1.16-0.16-2.26-0.49-3.31c-0.33-1.05-0.8-1.97-1.42-2.76
				c-0.62-0.8-1.37-1.43-2.26-1.89c-0.89-0.47-1.89-0.7-3-0.7c-1.11,0-2.11,0.23-3,0.7c-0.89,0.47-1.64,1.1-2.27,1.89
				c-0.62,0.79-1.09,1.72-1.42,2.76c-0.33,1.05-0.49,2.15-0.49,3.31c0,1.16,0.16,2.26,0.49,3.31c0.33,1.05,0.8,1.96,1.42,2.75
				s1.37,1.41,2.27,1.88c0.89,0.47,1.89,0.7,3,0.7c1.11,0,2.11-0.23,3-0.7c0.89-0.47,1.64-1.09,2.26-1.88
				c0.62-0.79,1.09-1.7,1.42-2.75C187.73,139.26,187.9,138.15,187.9,136.99z"/>
			<path class="st4" d="M198.35,145.13h8.08v1.8h-9.84v-19.9h1.76V145.13z"/>
			<path class="st4" d="M214,145.13h8.08v1.8h-9.84v-19.9H214V145.13z"/>
			<path class="st4" d="M229.64,145.13h9.28v1.8h-11.04v-19.9h10.75v1.8h-8.98v6.83h8.4v1.8h-8.4V145.13z"/>
			<path class="st4" d="M260.12,143.7c-0.29,0.51-0.65,0.98-1.07,1.43c-0.42,0.45-0.9,0.85-1.44,1.19
				c-0.55,0.34-1.15,0.61-1.81,0.81c-0.66,0.2-1.38,0.3-2.17,0.3c-1.31,0-2.51-0.26-3.62-0.79c-1.11-0.53-2.06-1.25-2.86-2.18
				c-0.8-0.93-1.42-2.03-1.87-3.3c-0.45-1.28-0.67-2.67-0.67-4.19c0-1.52,0.23-2.91,0.69-4.19c0.46-1.28,1.09-2.38,1.9-3.3
				c0.81-0.93,1.76-1.65,2.86-2.18c1.1-0.52,2.3-0.79,3.59-0.79c0.64,0,1.26,0.08,1.87,0.23c0.61,0.15,1.19,0.37,1.73,0.64
				c0.54,0.28,1.03,0.61,1.47,0.99c0.44,0.39,0.81,0.82,1.1,1.31l-1.47,1.24c-0.18-0.32-0.42-0.64-0.72-0.96
				c-0.3-0.32-0.66-0.6-1.06-0.84c-0.41-0.24-0.85-0.44-1.33-0.59c-0.48-0.15-1-0.22-1.55-0.22c-1.13,0-2.13,0.23-3.02,0.7
				c-0.89,0.47-1.64,1.1-2.27,1.89s-1.09,1.71-1.42,2.76c-0.33,1.05-0.49,2.15-0.49,3.31s0.17,2.26,0.5,3.31
				c0.33,1.05,0.81,1.97,1.43,2.76s1.37,1.42,2.27,1.89c0.89,0.47,1.89,0.7,3,0.7c1,0,1.94-0.23,2.84-0.7
				c0.9-0.47,1.65-1.22,2.25-2.25L260.12,143.7z"/>
			<path class="st4" d="M271.73,146.93h-1.76v-18.1h-5.8v-1.8h13.37v1.8h-5.8V146.93z"/>
			<path class="st4" d="M285.04,146.93h-1.76v-19.9h1.76V146.93z"/>
			<path class="st4" d="M298.12,144.32h0.05l5.63-17.29h1.89l-6.64,19.9h-1.86l-6.61-19.9h1.91L298.12,144.32z"/>
			<path class="st4" d="M312.98,145.13h9.28v1.8h-11.04v-19.9h10.75v1.8h-8.98v6.83h8.4v1.8h-8.4V145.13z"/>
		</g>
	</g>
</g>
</svg>
